<svg width="35" height="35" viewBox="0 0 35 35" fill="none" xmlns="http://www.w3.org/2000/svg">
<path d="M23.8584 20.4167C23.975 19.4542 24.0625 18.4917 24.0625 17.5C24.0625 16.5083 23.975 15.5458 23.8584 14.5833H28.7875C29.0209 15.5167 29.1667 16.4938 29.1667 17.5C29.1667 18.5063 29.0209 19.4833 28.7875 20.4167M21.2771 28.525C22.1521 26.9063 22.8229 25.1563 23.2896 23.3333H27.5917C26.1788 25.7662 23.9373 27.6092 21.2771 28.525ZM20.9125 20.4167H14.0875C13.9417 19.4542 13.8542 18.4917 13.8542 17.5C13.8542 16.5083 13.9417 15.5313 14.0875 14.5833H20.9125C21.0438 15.5313 21.1459 16.5083 21.1459 17.5C21.1459 18.4917 21.0438 19.4542 20.9125 20.4167ZM17.5 29.1083C16.2896 27.3583 15.3125 25.4188 14.7146 23.3333H20.2854C19.6875 25.4188 18.7104 27.3583 17.5 29.1083ZM11.6667 11.6667H7.40835C8.80637 9.22693 11.0464 7.38098 13.7084 6.47501C12.8334 8.09376 12.1771 9.84376 11.6667 11.6667ZM7.40835 23.3333H11.6667C12.1771 25.1563 12.8334 26.9063 13.7084 28.525C11.0517 27.6096 8.81461 25.7661 7.40835 23.3333ZM6.21252 20.4167C5.97919 19.4833 5.83335 18.5063 5.83335 17.5C5.83335 16.4938 5.97919 15.5167 6.21252 14.5833H11.1417C11.025 15.5458 10.9375 16.5083 10.9375 17.5C10.9375 18.4917 11.025 19.4542 11.1417 20.4167M17.5 5.87709C18.7104 7.62709 19.6875 9.58126 20.2854 11.6667H14.7146C15.3125 9.58126 16.2896 7.62709 17.5 5.87709ZM27.5917 11.6667H23.2896C22.8325 9.86069 22.1567 8.11724 21.2771 6.47501C23.9604 7.39376 26.1917 9.24584 27.5917 11.6667ZM17.5 2.91667C9.43544 2.91667 2.91669 9.47917 2.91669 17.5C2.91669 21.3677 4.45314 25.0771 7.18805 27.812C8.54223 29.1662 10.1499 30.2404 11.9192 30.9732C13.6886 31.7061 15.5849 32.0833 17.5 32.0833C21.3678 32.0833 25.0771 30.5469 27.812 27.812C30.5469 25.0771 32.0834 21.3677 32.0834 17.5C32.0834 15.5849 31.7061 13.6885 30.9733 11.9192C30.2404 10.1499 29.1662 8.54222 27.812 7.18803C26.4578 5.83384 24.8502 4.75964 23.0808 4.02676C21.3115 3.29388 19.4151 2.91667 17.5 2.91667Z" fill="#FEFEFE"/>
</svg>
