<svg width="40" height="40" viewBox="0 0 40 40" fill="none" xmlns="http://www.w3.org/2000/svg">
<path d="M10.8334 33.3334C8.30564 33.3334 6.14619 32.4584 4.35508 30.7084C2.56397 28.9584 1.66786 26.8195 1.66675 24.2917C1.66675 22.1251 2.31953 20.1945 3.62508 18.5001C4.93064 16.8056 6.63897 15.7223 8.75008 15.2501C9.44453 12.6945 10.8334 10.6251 12.9167 9.04175C15.0001 7.45842 17.3612 6.66675 20.0001 6.66675C23.2501 6.66675 26.0073 7.79897 28.2717 10.0634C30.5362 12.3279 31.6679 15.0845 31.6667 18.3334C33.5834 18.5556 35.174 19.3823 36.4384 20.8134C37.7029 22.2445 38.3345 23.9179 38.3334 25.8334C38.3334 27.9167 37.6045 29.6879 36.1467 31.1467C34.689 32.6056 32.9179 33.3345 30.8334 33.3334H10.8334ZM10.8334 30.0001H30.8334C32.0001 30.0001 32.9862 29.5973 33.7917 28.7917C34.5973 27.9862 35.0001 27.0001 35.0001 25.8334C35.0001 24.6667 34.5973 23.6806 33.7917 22.8751C32.9862 22.0695 32.0001 21.6667 30.8334 21.6667H28.3334V18.3334C28.3334 16.0279 27.5206 14.0623 25.8951 12.4367C24.2695 10.8112 22.3045 9.99897 20.0001 10.0001C17.6956 10.0012 15.7306 10.814 14.1051 12.4384C12.4795 14.0629 11.6667 16.0279 11.6667 18.3334H10.8334C9.2223 18.3334 7.8473 18.9029 6.70841 20.0417C5.56953 21.1806 5.00008 22.5556 5.00008 24.1667C5.00008 25.7779 5.56953 27.1529 6.70841 28.2917C7.8473 29.4306 9.2223 30.0001 10.8334 30.0001Z" fill="#4E6FCF"/>
</svg>
