<svg width="40" height="40" viewBox="0 0 40 40" fill="none" xmlns="http://www.w3.org/2000/svg">
<path d="M33.3334 28.3333V11.6667C33.3334 8.05333 27.2284 5 20.0001 5C12.7717 5 6.66675 8.05333 6.66675 11.6667V28.3333C6.66675 31.9467 12.7717 35 20.0001 35C27.2284 35 33.3334 31.9467 33.3334 28.3333ZM20.0001 8.33333C26.1517 8.33333 29.8851 10.845 30.0001 11.6567C29.8851 12.4883 26.1517 15 20.0001 15C13.8484 15 10.1151 12.4883 10.0001 11.6767C10.1151 10.845 13.8484 8.33333 20.0001 8.33333ZM10.0001 16.0117C12.4651 17.4233 16.0617 18.3333 20.0001 18.3333C23.9384 18.3333 27.5351 17.4233 30.0001 16.0117V19.99C29.8851 20.8217 26.1517 23.3333 20.0001 23.3333C13.8484 23.3333 10.1151 20.8217 10.0001 20V16.0117ZM10.0001 28.3333V24.345C12.4651 25.7567 16.0617 26.6667 20.0001 26.6667C23.9384 26.6667 27.5351 25.7567 30.0001 24.345V28.3233C29.8851 29.155 26.1517 31.6667 20.0001 31.6667C13.8484 31.6667 10.1151 29.155 10.0001 28.3333Z" fill="#4E6FCF"/>
</svg>
