<svg width="40" height="40" viewBox="0 0 40 40" fill="none" xmlns="http://www.w3.org/2000/svg">
<path d="M19.9999 9.99992C19.5579 9.99992 19.134 10.1755 18.8214 10.4881C18.5088 10.8006 18.3333 11.2246 18.3333 11.6666V28.3333C18.3333 28.7753 18.5088 29.1992 18.8214 29.5118C19.134 29.8243 19.5579 29.9999 19.9999 29.9999C20.4419 29.9999 20.8659 29.8243 21.1784 29.5118C21.491 29.1992 21.6666 28.7753 21.6666 28.3333V11.6666C21.6666 11.2246 21.491 10.8006 21.1784 10.4881C20.8659 10.1755 20.4419 9.99992 19.9999 9.99992ZM11.6666 19.9999C11.2246 19.9999 10.8006 20.1755 10.4881 20.4881C10.1755 20.8006 9.99992 21.2246 9.99992 21.6666V28.3333C9.99992 28.7753 10.1755 29.1992 10.4881 29.5118C10.8006 29.8243 11.2246 29.9999 11.6666 29.9999C12.1086 29.9999 12.5325 29.8243 12.8451 29.5118C13.1577 29.1992 13.3333 28.7753 13.3333 28.3333V21.6666C13.3333 21.2246 13.1577 20.8006 12.8451 20.4881C12.5325 20.1755 12.1086 19.9999 11.6666 19.9999ZM28.3333 16.6666C27.8912 16.6666 27.4673 16.8422 27.1547 17.1547C26.8422 17.4673 26.6666 17.8912 26.6666 18.3333V28.3333C26.6666 28.7753 26.8422 29.1992 27.1547 29.5118C27.4673 29.8243 27.8912 29.9999 28.3333 29.9999C28.7753 29.9999 29.1992 29.8243 29.5118 29.5118C29.8243 29.1992 29.9999 28.7753 29.9999 28.3333V18.3333C29.9999 17.8912 29.8243 17.4673 29.5118 17.1547C29.1992 16.8422 28.7753 16.6666 28.3333 16.6666ZM31.6666 3.33325H8.33325C7.00717 3.33325 5.7354 3.86004 4.79772 4.79772C3.86004 5.7354 3.33325 7.00717 3.33325 8.33325V31.6666C3.33325 32.9927 3.86004 34.2644 4.79772 35.2021C5.7354 36.1398 7.00717 36.6666 8.33325 36.6666H31.6666C32.9927 36.6666 34.2644 36.1398 35.2021 35.2021C36.1398 34.2644 36.6666 32.9927 36.6666 31.6666V8.33325C36.6666 7.00717 36.1398 5.7354 35.2021 4.79772C34.2644 3.86004 32.9927 3.33325 31.6666 3.33325ZM33.3333 31.6666C33.3333 32.1086 33.1577 32.5325 32.8451 32.8451C32.5325 33.1577 32.1086 33.3333 31.6666 33.3333H8.33325C7.89122 33.3333 7.4673 33.1577 7.15474 32.8451C6.84218 32.5325 6.66659 32.1086 6.66659 31.6666V8.33325C6.66659 7.89122 6.84218 7.4673 7.15474 7.15474C7.4673 6.84218 7.89122 6.66659 8.33325 6.66659H31.6666C32.1086 6.66659 32.5325 6.84218 32.8451 7.15474C33.1577 7.4673 33.3333 7.89122 33.3333 8.33325V31.6666Z" fill="#4E6FCF"/>
</svg>
