<svg width="40" height="40" viewBox="0 0 40 40" fill="none" xmlns="http://www.w3.org/2000/svg">
<path d="M6.66659 33.3334C5.74992 33.3334 4.96547 33.0072 4.31325 32.355C3.66103 31.7028 3.33436 30.9178 3.33325 30V10C3.33325 9.08335 3.65992 8.29891 4.31325 7.64669C4.96659 6.99446 5.75103 6.6678 6.66659 6.66669H33.3333C34.2499 6.66669 35.0349 6.99335 35.6883 7.64669C36.3416 8.30002 36.6677 9.08446 36.6666 10V30C36.6666 30.9167 36.3405 31.7017 35.6883 32.355C35.036 33.0084 34.251 33.3345 33.3333 33.3334H6.66659ZM6.66659 30H24.1666V24.1667H6.66659V30ZM27.4999 30H33.3333V15H27.4999V30ZM6.66659 20.8334H24.1666V15H6.66659V20.8334Z" fill="#4E6FCF"/>
</svg>
