<svg width="40" height="40" viewBox="0 0 40 40" fill="none" xmlns="http://www.w3.org/2000/svg">
<path d="M20.5101 23.3599C21.7413 23.4862 22.882 24.0646 23.7114 24.9833C24.5407 25.9019 24.9999 27.0956 25.0001 28.3333C25.0001 30.9033 23.4334 33.0299 21.3267 34.4333C19.2101 35.8466 16.3767 36.6666 13.3334 36.6666C10.2901 36.6666 7.45675 35.8466 5.34008 34.4333C3.23008 33.0333 1.66675 30.9033 1.66675 28.3333C1.66675 27.0072 2.19353 25.7354 3.13121 24.7977C4.0689 23.8601 5.34067 23.3333 6.66675 23.3333H20.0001L20.5101 23.3599ZM33.3267 23.3333C34.6528 23.3333 35.9246 23.8601 36.8623 24.7977C37.8 25.7354 38.3267 27.0072 38.3267 28.3333C38.3267 30.6499 36.8901 32.3699 35.0501 33.4266C33.2234 34.4766 30.8334 34.9999 28.3267 34.9999C27.4845 34.9977 26.6623 34.9366 25.8601 34.8166C26.6401 33.8966 27.2934 32.8399 27.7301 31.6499C27.9279 31.6611 28.1267 31.6666 28.3267 31.6666C30.4234 31.6666 32.2001 31.2233 33.3901 30.5399C34.5667 29.8633 34.9934 29.0833 34.9934 28.3333C34.9934 27.8912 34.8178 27.4673 34.5053 27.1548C34.1927 26.8422 33.7688 26.6666 33.3267 26.6666H28.1601C27.9089 25.4571 27.392 24.3185 26.6467 23.3333H33.3267ZM6.66675 26.6666C6.22472 26.6666 5.8008 26.8422 5.48824 27.1548C5.17568 27.4673 5.00008 27.8912 5.00008 28.3333C5.00008 29.4433 5.67675 30.6533 7.18675 31.6599C8.68675 32.6599 10.8534 33.3333 13.3334 33.3333C15.8101 33.3333 17.9801 32.6599 19.4801 31.6599C20.9901 30.6533 21.6667 29.4433 21.6667 28.3333C21.6668 27.9491 21.5342 27.5766 21.2912 27.279C21.0482 26.9813 20.7099 26.7768 20.3334 26.6999L20.0001 26.6666H6.66675ZM14.1034 5.02994C15.952 5.21965 17.6647 6.08802 18.9102 7.46717C20.1558 8.84631 20.8457 10.6383 20.8467 12.4966L20.8067 13.2633C20.6155 15.1107 19.7465 16.8217 18.3675 18.0659C16.9885 19.3101 15.1974 19.9991 13.3401 19.9999L12.5734 19.9599C10.8562 19.7847 9.25195 19.0225 8.03138 17.802C6.81081 16.5814 6.04862 14.9772 5.87341 13.2599L5.83341 12.4933C5.83341 10.5021 6.62419 8.59239 8.03186 7.18408C9.43954 5.77578 11.3489 4.98416 13.3401 4.98328L14.1034 5.02994ZM29.1667 8.32328C29.9328 8.32328 30.6913 8.47416 31.3991 8.76731C32.1068 9.06046 32.7499 9.49015 33.2915 10.0318C33.8332 10.5735 34.2629 11.2166 34.556 11.9243C34.8492 12.632 35.0001 13.3906 35.0001 14.1566C35.0001 14.9227 34.8492 15.6812 34.556 16.3889C34.2629 17.0967 33.8332 17.7397 33.2915 18.2814C32.7499 18.8231 32.1068 19.2528 31.3991 19.5459C30.6913 19.8391 29.9328 19.9899 29.1667 19.9899C27.6197 19.9899 26.1359 19.3754 25.042 18.2814C23.948 17.1874 23.3334 15.7037 23.3334 14.1566C23.3334 12.6095 23.948 11.1258 25.042 10.0318C26.1359 8.93786 27.6197 8.32328 29.1667 8.32328ZM13.3401 8.32328C12.792 8.32328 12.2493 8.43122 11.743 8.64095C11.2367 8.85068 10.7766 9.15809 10.3891 9.54562C10.0016 9.93315 9.69415 10.3932 9.48442 10.8995C9.27469 11.4059 9.16675 11.9486 9.16675 12.4966C9.16675 13.0447 9.27469 13.5873 9.48442 14.0937C9.69415 14.6 10.0016 15.0601 10.3891 15.4476C10.7766 15.8351 11.2367 16.1425 11.743 16.3523C12.2493 16.562 12.792 16.6699 13.3401 16.6699C14.4469 16.6699 15.5084 16.2303 16.2911 15.4476C17.0737 14.665 17.5134 13.6034 17.5134 12.4966C17.5134 11.3898 17.0737 10.3283 16.2911 9.54562C15.5084 8.76297 14.4469 8.32328 13.3401 8.32328ZM29.1667 11.6566C28.5037 11.6566 27.8678 11.92 27.399 12.3888C26.9301 12.8577 26.6667 13.4936 26.6667 14.1566C26.6667 14.8197 26.9301 15.4555 27.399 15.9244C27.8678 16.3932 28.5037 16.6566 29.1667 16.6566C29.8298 16.6566 30.4657 16.3932 30.9345 15.9244C31.4034 15.4555 31.6667 14.8197 31.6667 14.1566C31.6667 13.4936 31.4034 12.8577 30.9345 12.3888C30.4657 11.92 29.8298 11.6566 29.1667 11.6566Z" fill="#4E6FCF"/>
</svg>
