<svg width="40" height="40" viewBox="0 0 40 40" fill="none" xmlns="http://www.w3.org/2000/svg">
<path d="M19.1667 35H13.3333C12.4493 35 11.6014 34.6488 10.9763 34.0237C10.3512 33.3986 10 32.5507 10 31.6667V8.33333C10 7.44928 10.3512 6.60143 10.9763 5.97631C11.6014 5.35119 12.4493 5 13.3333 5H26.6667C27.5507 5 28.3986 5.35119 29.0237 5.97631C29.6488 6.60143 30 7.44928 30 8.33333V21.6667M33.3333 35L36.6667 31.6667L33.3333 28.3333M28.3333 28.3333L25 31.6667L28.3333 35M18.3333 6.66667H21.6667M20 28.3333V28.35" stroke="#4E6FCF" stroke-width="3.33333" stroke-linecap="round" stroke-linejoin="round"/>
</svg>
